<svg xmlns="http://www.w3.org/2000/svg" width="1200" height="630" viewBox="0 0 1200 630">
  <rect width="1200" height="630" fill="#050505"/>
  <path d="M0 0h1200v630H0z" fill="none" stroke="#141419"/>
  <g opacity=".35" stroke="#990000" stroke-width="1">
    <path d="M0 90h1200M0 180h1200M0 270h1200M0 360h1200M0 450h1200M0 540h1200"/>
    <path d="M120 0v630M240 0v630M360 0v630M480 0v630M600 0v630M720 0v630M840 0v630M960 0v630M1080 0v630"/>
  </g>
  <g fill="#F0F0F0" font-family="Rajdhani, Arial, sans-serif" font-weight="700" letter-spacing="10">
    <text x="120" y="305" font-size="118">WAR GAMES</text>
  </g>
  <text x="124" y="370" fill="#8A8A8A" font-family="JetBrains Mono, monospace" font-size="24" letter-spacing="7">CLASSIFIED COOPERATIVE TACTICAL OPERATIONS</text>
  <rect x="120" y="420" width="300" height="4" fill="#CC0000"/>
  <circle cx="1030" cy="186" r="64" fill="none" stroke="#CC0000" stroke-width="5"/>
  <path d="M984 132h22l12 69 15-69h18l15 69 12-69h22l-32 112h-24l-11-47-15 47h-24l-30-112Z" fill="#C8C8C8"/>
</svg>
